<svg id="Layer_1" data-name="Layer 1" xmlns="http://www.w3.org/2000/svg" viewBox="0 0 68 24"><defs><style>.cls-1{fill:#009640;}.cls-2{fill:#1d1d1b;}</style></defs><polygon class="cls-1" points="47.59 0.5 54.56 11.66 47.2 23.29 47.21 15.6 45.22 15.6 45.22 8.2 47.59 8.2 47.59 0.5"/><polygon class="cls-1" points="54.24 0.51 57.77 6.62 61.24 0.51 54.24 0.51"/><polygon class="cls-1" points="60.89 11.59 67.95 23.4 67.92 0.54 60.89 11.59"/><polygon class="cls-1" points="57.76 16.71 61.58 23.31 53.91 23.31 57.76 16.71"/><path class="cls-2" d="M14.33,18.16a4.85,4.85,0,0,1-3.15,1,4.39,4.39,0,0,1-3.79-1.85A8.66,8.66,0,0,1,6,12.08a8.77,8.77,0,0,1,1.42-5.3,4.55,4.55,0,0,1,3.87-1.93,4.86,4.86,0,0,1,2.95.82,4.21,4.21,0,0,1,1.53,2.47h5.48a8.52,8.52,0,0,0-3-6A10.25,10.25,0,0,0,11.52,0,10.94,10.94,0,0,0,3.17,3.3,12.33,12.33,0,0,0,.05,12.14a12.06,12.06,0,0,0,3.06,8.59A10.55,10.55,0,0,0,11.18,24,10.1,10.1,0,0,0,18,21.74a9.72,9.72,0,0,0,3.17-6H15.74A4.16,4.16,0,0,1,14.33,18.16Z"/><path class="cls-2" d="M30.49,5.39h3.17a4.75,4.75,0,0,1,4,1.59,4.3,4.3,0,0,1,.7,1.27h6.13a10,10,0,0,0-2.34-4.74q-2.7-3-7.76-2.95H24.62V8.25h5.87Z"/><path class="cls-2" d="M38.33,15.71a5,5,0,0,1-.7,1.28,4.75,4.75,0,0,1-4,1.59H30.49V15.71H24.62v7.66h9q5.64,0,8.43-2.84a9.41,9.41,0,0,0,2.43-4.82Z"/></svg>